<svg width="392" height="392" viewBox="0 0 392 392" fill="none" xmlns="http://www.w3.org/2000/svg">
<g clip-path="url(#clip0_2649_43)">
<rect width="392" height="392" rx="120" fill="black"/>
<path d="M305.07 188.868C279.575 189.336 266.322 206.518 266.322 206.518L154.721 328.628C154.721 328.628 150.942 332.909 159.734 336.862C164.301 338.916 172.83 342.91 185.447 342.53C208.141 341.847 222.46 326.244 222.537 326.16L334.78 203.347C334.78 203.347 338.955 199.054 330.568 194.77C326.223 192.552 318.738 189.032 305.07 188.868ZM147.887 188.633C147.887 188.633 145.199 186.23 142.194 188.427C140.472 189.685 138.655 193.233 136.945 198.228C135.325 202.959 133.485 209.075 133.801 216.709C134.908 243.432 150.4 255.847 150.4 255.847L178.34 281.383L210.668 246.011L147.887 188.633Z" fill="white"/>
<path d="M87.75 202.688C113.198 202.222 126.449 185.101 126.497 185.039L238.098 62.9276C238.098 62.9276 241.877 58.6479 233.085 54.6942C228.518 52.6405 219.99 48.6454 207.373 49.0253C184.618 49.7107 170.282 65.3964 170.282 65.3964L58.0391 188.209C58.0391 188.209 53.8643 192.502 62.251 196.785C66.5956 199.004 74.0818 202.525 87.75 202.688ZM224.056 224.405C224.056 224.405 226.744 226.808 229.749 224.612C231.471 223.353 233.288 219.805 234.998 214.809C236.618 210.079 238.458 203.962 238.142 196.329C237.035 169.607 221.543 157.191 221.543 157.191L193.603 131.655L161.274 167.028L224.056 224.405Z" fill="white"/>
</g>
<defs>
<clipPath id="clip0_2649_43">
<rect width="392" height="392" fill="white"/>
</clipPath>
</defs>
</svg>
