<svg width="392" height="392" viewBox="0 0 392 392" fill="none" xmlns="http://www.w3.org/2000/svg">
<g clip-path="url(#clip0_2649_43)">
<rect width="392" height="392" rx="120" fill="black"/>
<path d="M218.425 156.738C224.717 142.476 227.863 135.345 232.82 130.028C237.204 125.327 242.585 121.668 248.57 119.321C255.337 116.667 263.125 116.364 278.701 115.759L310.923 114.508C317.713 114.244 321.109 114.112 323.222 115.463C325.067 116.642 326.348 118.526 326.766 120.676C327.245 123.138 325.873 126.247 323.13 132.464L275.12 241.292C268.54 256.207 265.25 263.664 260.026 269.123C255.409 273.948 249.732 277.632 243.444 279.882C236.329 282.427 228.179 282.392 211.878 282.322L182.659 282.197C176.139 282.169 172.879 282.155 170.854 280.773C169.085 279.565 167.874 277.699 167.492 275.591C167.056 273.179 168.371 270.196 171.003 264.23L218.425 156.738Z" fill="white"/>
<g opacity="0.5" filter="url(#filter0_f_2649_43)">
<ellipse cx="213.299" cy="206.093" rx="44" ry="82.5" transform="rotate(10.4113 213.299 206.093)" fill="black"/>
</g>
<path d="M141 157.966C141 142.378 141 134.584 143.39 127.719C145.503 121.648 148.95 116.128 153.478 111.566C158.598 106.406 165.601 102.985 179.608 96.1449L208.583 81.9944C214.689 79.0121 217.743 77.521 220.221 77.9038C222.385 78.238 224.318 79.4451 225.568 81.2433C227 83.3023 227 86.7002 227 93.4961V212.444C227 228.745 227 236.896 224.424 243.999C222.147 250.277 218.44 255.939 213.595 260.535C208.113 265.736 200.642 268.993 185.699 275.509L158.916 287.188C152.939 289.794 149.951 291.097 147.541 290.65C145.435 290.259 143.573 289.04 142.373 287.266C141 285.235 141 281.975 141 275.455V157.966Z" fill="white"/>
<g opacity="0.5" filter="url(#filter1_f_2649_43)">
<ellipse cx="149.631" cy="211.876" rx="44" ry="82.5" transform="rotate(-17.3771 149.631 211.876)" fill="black"/>
</g>
<path d="M79.3609 204.859C70.9412 190.735 66.7314 183.674 65.315 176.195C64.0632 169.585 64.3798 162.773 66.2393 156.308C68.3433 148.993 73.1899 142.352 82.8833 129.07L103.63 100.643C107.443 95.4186 109.35 92.8063 111.643 91.9736C113.648 91.2457 115.861 91.3485 117.789 92.2592C119.996 93.301 121.652 96.079 124.964 101.635L178.948 192.191C187.709 206.886 192.089 214.234 193.463 221.987C194.677 228.836 194.211 235.877 192.105 242.506C189.722 250.01 184.412 256.717 173.791 270.13L153.642 295.577C149.772 300.463 147.838 302.907 145.571 303.66C143.588 304.319 141.426 304.176 139.548 303.261C137.4 302.216 135.804 299.539 132.612 294.185L79.3609 204.859Z" fill="#4F46E5"/>
</g>
<defs>
<filter id="filter0_f_2649_43" x="143.514" y="100.557" width="139.568" height="211.073" filterUnits="userSpaceOnUse" color-interpolation-filters="sRGB">
<feFlood flood-opacity="0" result="BackgroundImageFix"/>
<feBlend mode="normal" in="SourceGraphic" in2="BackgroundImageFix" result="shape"/>
<feGaussianBlur stdDeviation="12" result="effect1_foregroundBlur_2649_43"/>
</filter>
<filter id="filter1_f_2649_43" x="76.9365" y="108.039" width="145.389" height="207.673" filterUnits="userSpaceOnUse" color-interpolation-filters="sRGB">
<feFlood flood-opacity="0" result="BackgroundImageFix"/>
<feBlend mode="normal" in="SourceGraphic" in2="BackgroundImageFix" result="shape"/>
<feGaussianBlur stdDeviation="12" result="effect1_foregroundBlur_2649_43"/>
</filter>
<clipPath id="clip0_2649_43">
<rect width="392" height="392" fill="white"/>
</clipPath>
</defs>
</svg>
